<mxfile host="app.diagrams.net" modified="2024-01-12T20:32:31.127Z" agent="Mozilla/5.0 (Linux; Android 10; K) AppleWebKit/537.36 (KHTML, like Gecko) Chrome/120.0.0.0 Mobile Safari/537.36" version="22.1.18" etag="DMC-5NuDySYGajLDT1QJ" type="github">
  <diagram name="Page-1" id="Vbyaoe3N8gTRE66U7y4D">
    <mxGraphModel>
      <root>
        <mxCell id="0" />
        <mxCell id="1" parent="0" />
      </root>
    </mxGraphModel>
  </diagram>
</mxfile>
